<svg xmlns="http://www.w3.org/2000/svg" width="36" height="36" viewBox="0 0 36 36">
  <title>tw</title>
  <g id="artwork">
    <path d="M26.68,14.2c0,.18,0,.37,0,.55A12,12,0,0,1,8.2,24.87a8.73,8.73,0,0,0,1,.05,8.45,8.45,0,0,0,5.24-1.8,4.23,4.23,0,0,1-3.95-2.93,5.32,5.32,0,0,0,.8.07,4.46,4.46,0,0,0,1.11-.14A4.22,4.22,0,0,1,9,16v-.05a4.25,4.25,0,0,0,1.91.54,4.23,4.23,0,0,1-1.31-5.65,12,12,0,0,0,8.7,4.42,4.76,4.76,0,0,1-.1-1,4.23,4.23,0,0,1,7.31-2.89,8.31,8.31,0,0,0,2.68-1,4.21,4.21,0,0,1-1.86,2.33A8.46,8.46,0,0,0,28.8,12,9.08,9.08,0,0,1,26.68,14.2Z" style="fill: #fff"/>
  </g>
</svg>
